<?xml version="1.0" encoding="UTF-8" standalone="no"?>

<svg
   xmlns:dc="http://purl.org/dc/elements/1.1/"
   xmlns:cc="http://creativecommons.org/ns#"
   xmlns:rdf="http://www.w3.org/1999/02/22-rdf-syntax-ns#"
   xmlns:svg="http://www.w3.org/2000/svg"
   xmlns="http://www.w3.org/2000/svg"
   width="219.50266"
   height="219.51358"
   id="svg2"
   version="1.1">

  <metadata
     id="metadata7">
    <rdf:RDF>
      <cc:Work
         rdf:about="">
        <dc:format>image/svg+xml</dc:format>
        <dc:type
           rdf:resource="http://purl.org/dc/dcmitype/StillImage" />
        <dc:title></dc:title>
      </cc:Work>
    </rdf:RDF>
  </metadata>
  <g
     id="layer1"
     transform="translate(-157.85425,-443.95623)">
    <g
       id="g3034"
       transform="translate(125.90216,445.34658)">
      <path
         id="path54"
         style="fill:#ffffff"
         d="m 142.17019,-1.3903528 c -60.871717,0 -110.218097,49.3486238 -110.218097,110.2239328 0,60.87433 48.4119,109.28964 109.284577,109.28964 60.87266,0 110.21808,-49.3496 110.21808,-110.22393 C 251.45572,47.024957 203.04381,-1.3903528 142.17019,-1.3903528 z m -0.97596,15.9940068 c 85.83469,0 94.59512,85.222711 94.59512,85.222711 0,0 -30.30951,-0.0774 -41.36421,-0.0774 -11.05469,0 -12.60831,3.423765 -14.63158,12.608925 -2.02327,9.1842 -8.55888,35.33441 -8.55888,35.33441 L 138.70517,40.754826 c 0,0 -1.7465,-8.872771 -8.24931,-8.872771 -6.50186,0 -8.09405,8.872771 -8.09405,8.872771 l -16.18713,58.838449 -58.678707,0.31046 c -0.002,-9.7e-4 7.86548,-85.300081 93.698257,-85.300081 z M 140.9136,201.86711 c -85.637007,0 -93.419557,-88.42209 -93.419557,-88.42209 0,0 58.211947,-0.15475 62.569987,-0.15475 4.35803,0 6.06981,-1.67416 8.05547,-8.21123 1.98469,-6.538035 13.03939,-41.074535 13.03939,-41.074535 0,0 33.16311,105.667615 35.11502,112.170835 1.94901,6.50418 10.56382,6.53803 12.74332,-1.86857 1.94998,-10.40572 13.85236,-61.17318 13.85236,-61.17318 l 42.9593,0 c -9.6e-4,0 -9.28023,88.73352 -94.91529,88.73352 z"
          />
    </g>
  </g>
</svg>
