<?xml version="1.0" encoding="UTF-8" standalone="no"?>
<svg
   xmlns="http://www.w3.org/2000/svg"
   width="44"
   height="44"
   viewBox="0 0 44 44"
   id="svg2"
   version="1.1">
  <path
     style="fill:none"
     d="M 0,-4 H 48 V 44 H 0 z"
     id="path4" />
  <g
     id="g3819">
    <path
       style="fill:#ffffff;stroke:none"
       id="path6"
       d="m 42,9.58 -9.19,-7.71 -2.57,3.06 9.19,7.71 z M 13.76,4.92 11.19,1.86 2,9.57 4.57,12.63 z m 8.23,1.22 C 12.04,6.14 4,14.2 4,24.14 c 0,9.94 8.04,18 17.99,18 9.95,0 18.01,-8.06 18.01,-18 0,-9.94 -8.06,-18 -18.01,-18 z m 0.01,32 c -7.73,0 -14,-6.27 -14,-14 0,-7.73 6.27,-14 14,-14 7.73,0 14,6.27 14,14 0,7.73 -6.26,14 -14,14 z" />
    <path
       id="path3753"
       d="m 33.22674,24.169492 -4.210029,0 -4.009547,10.494563 -6.014327,-20.989124 -4.009548,10.494561 -4.210029,0"
       style="fill:none;stroke:#ffffff;stroke-width:3.50000000000000000;stroke-linecap:round;stroke-linejoin:round;stroke-miterlimit:4;stroke-opacity:1;stroke-dasharray:none" />
  </g>
</svg>
